<?xml version="1.0" encoding="UTF-8"?><svg id="Layer_1" xmlns="http://www.w3.org/2000/svg" xmlns:xlink="http://www.w3.org/1999/xlink" viewBox="0 0 541.65 115.78"><defs><style>.cls-1{fill:url(#Spectrum_);}</style><linearGradient id="Spectrum_" x1="0" y1="57.89" x2="541.65" y2="57.89" gradientTransform="matrix(1, 0, 0, 1, 0, 0)" gradientUnits="userSpaceOnUse"><stop offset="0" stop-color="#00a8de"/><stop offset=".2" stop-color="#333391"/><stop offset=".4" stop-color="#e91388"/><stop offset=".6" stop-color="#eb2d2e"/><stop offset=".8" stop-color="#fde92b"/><stop offset="1" stop-color="#009e54"/></linearGradient></defs><path class="cls-1" d="M63.62,35.96h-26.84v-8.24c0-3.84-.34-6.29-1.03-7.34s-1.83-1.58-3.43-1.58c-1.74,0-3.05,.71-3.95,2.13s-1.34,3.57-1.34,6.46c0,3.71,.5,6.5,1.5,8.38,.96,1.88,3.68,4.14,8.17,6.79,12.86,7.63,20.96,13.9,24.3,18.79,3.34,4.9,5.01,12.79,5.01,23.68,0,7.92-.93,13.75-2.78,17.5-1.85,3.75-5.43,6.9-10.74,9.44s-11.49,3.81-18.53,3.81c-7.73,0-14.33-1.47-19.8-4.39-5.47-2.93-9.05-6.66-10.74-11.19-1.69-4.53-2.54-10.96-2.54-19.29v-7.28H27.73v13.52c0,4.16,.38,6.84,1.13,8.03,.75,1.19,2.09,1.79,4.01,1.79s3.35-.75,4.29-2.27c.94-1.51,1.41-3.75,1.41-6.73,0-6.54-.89-10.82-2.68-12.83-1.83-2.01-6.34-5.38-13.52-10.09-7.18-4.76-11.94-8.21-14.28-10.36-2.33-2.15-4.27-5.12-5.8-8.92-1.53-3.8-2.3-8.65-2.3-14.55,0-8.51,1.09-14.73,3.26-18.67,2.17-3.93,5.68-7.01,10.54-9.23C18.64,1.11,24.5,0,31.37,0c7.5,0,13.9,1.21,19.18,3.64,5.29,2.43,8.79,5.48,10.5,9.16,1.72,3.68,2.57,9.94,2.57,18.77v4.39Z"/><path class="cls-1" d="M141.52,2.33V113.45h-28.89v-46.67h-8.65v46.67h-28.89V2.33h28.89V42.07h8.65V2.33h28.89Z"/><path class="cls-1" d="M182.01,2.33V113.45h-28.89V2.33h28.89Z"/><path class="cls-1" d="M258.13,2.33V113.45h-25.33l-15.03-50.51v50.51h-24.16V2.33h24.16l16.2,50.03V2.33h24.16Z"/><path class="cls-1" d="M269.73,2.33h48.18V24.57h-19.29v21.07h18.05v21.14h-18.05v24.43h21.21v22.24h-50.1V2.33Z"/><path class="cls-1" d="M328.13,2.33h28.83c9.11,0,16,.71,20.69,2.13,4.69,1.42,8.48,4.29,11.36,8.61,2.88,4.32,4.32,11.28,4.32,20.88,0,6.49-1.02,11.02-3.05,13.58-2.04,2.56-6.05,4.53-12.05,5.9,6.68,1.51,11.21,4.02,13.59,7.52,2.38,3.5,3.57,8.87,3.57,16.1v10.3c0,7.51-.86,13.07-2.57,16.69-1.72,3.62-4.45,6.09-8.2,7.42-3.75,1.33-11.44,1.99-23.06,1.99h-33.42V2.33Zm28.89,19.01v24.71c1.24-.05,2.2-.07,2.88-.07,2.84,0,4.64-.7,5.42-2.09,.78-1.4,1.17-5.39,1.17-11.98,0-3.48-.32-5.91-.96-7.31-.64-1.4-1.48-2.28-2.51-2.64-1.03-.37-3.03-.57-6-.62Zm0,42v31.09c4.07-.14,6.67-.78,7.79-1.92,1.12-1.14,1.68-3.96,1.68-8.44v-10.36c0-4.76-.5-7.64-1.51-8.65-1.01-1.01-3.66-1.58-7.96-1.72Z"/><path class="cls-1" d="M455.71,2.33l16.52,111.12h-29.53l-1.55-19.97h-10.34l-1.74,19.97h-29.87L413.94,2.33h41.76Zm-15.31,71.45c-1.46-12.59-2.93-28.14-4.4-46.67-2.94,21.28-4.79,36.83-5.54,46.67h9.95Z"/><path class="cls-1" d="M477.14,2.33h20.45c13.63,0,22.87,.53,27.69,1.58,4.83,1.05,8.76,3.74,11.8,8.06,3.04,4.32,4.56,11.22,4.56,20.69,0,8.65-1.08,14.46-3.23,17.43-2.15,2.97-6.38,4.76-12.7,5.35,5.72,1.42,9.56,3.32,11.53,5.7,1.97,2.38,3.19,4.56,3.67,6.55s.72,7.47,.72,16.44v29.31h-26.84v-36.92c0-5.95-.47-9.63-1.41-11.05-.94-1.42-3.4-2.13-7.38-2.13v50.1h-28.89V2.33Zm28.89,19.01v24.71c3.25,0,5.53-.45,6.83-1.34s1.96-3.79,1.96-8.68v-6.11c0-3.52-.63-5.83-1.89-6.93-1.26-1.1-3.56-1.65-6.9-1.65Z"/></svg>
